<?xml version="1.0" encoding="UTF-8" standalone="no"?>
<!DOCTYPE svg PUBLIC "-//W3C//DTD SVG 1.1//EN" "http://www.w3.org/Graphics/SVG/1.1/DTD/svg11.dtd">
<svg xmlns="http://www.w3.org/2000/svg" xmlns:xlink="http://www.w3.org/1999/xlink" version="1.1" width="1080pt" height="1080pt" viewBox="0 0 1080 1080">
<g enable-background="new">
<g id="Layer-1" data-name="Layer">
<path transform="matrix(1,0,0,-1,96.1875,283.7646)" d="M 0 0 L 0 -512.471 L 443.812 -768.706 L 887.625 -512.471 L 887.625 0 L 443.812 256.235 Z " fill="#2332b7"/>
<clipPath id="cp0">
<path transform="matrix(1,0,0,-1,0,1080)" d="M 0 1080 L 1080 1080 L 1080 0 L 0 0 Z "/>
</clipPath>
<g clip-path="url(#cp0)">
<path transform="matrix(1,0,0,-1,540,68.85602)" d="M 0 0 L -373.351 -215.555 C -394.736 -227.901 -408.021 -250.913 -408.021 -275.607 L -408.021 -666.68 C -408.021 -691.375 -394.737 -714.386 -373.351 -726.732 L 0 -942.287 L 373.351 -726.732 C 394.736 -714.386 408.021 -691.375 408.021 -666.68 L 408.021 -275.607 C 408.021 -250.913 394.736 -227.901 373.351 -215.555 Z M 0 -960.197 L -381.105 -740.164 C -407.274 -725.056 -423.531 -696.898 -423.531 -666.68 L -423.531 -275.607 C -423.531 -245.389 -407.274 -217.231 -381.105 -202.124 L 0 17.908 L 381.105 -202.124 C 407.274 -217.231 423.531 -245.389 423.531 -275.607 L 423.531 -666.68 C 423.531 -696.898 407.274 -725.056 381.105 -740.164 Z " fill="#ff3900"/>
<path transform="matrix(1,0,0,-1,441.6797,746.8242)" d="M 0 0 C 0 -14.102 -12.384 -23.141 -36.157 -23.141 C -52.88 -23.141 -67.704 -18.893 -78.19 -11.39 L -66.077 2.53 C -59.026 -2.261 -47.999 -6.057 -35.796 -6.057 C -28.384 -6.057 -24.858 -4.972 -24.858 -2.712 C -24.858 -.543 -27.299 .451 -37.875 1.355 C -57.852 3.073 -75.298 7.683 -75.298 22.508 C -75.298 36.699 -59.84 44.473 -38.869 44.473 C -25.762 44.473 -12.203 41.49 -2.621 35.524 L -14.102 21.513 C -21.423 25.942 -29.648 27.66 -38.778 27.66 C -44.293 27.66 -50.439 27.117 -50.439 24.677 C -50.439 22.598 -46.101 21.965 -36.971 21.242 C -15.367 19.434 0 15.457 0 0 " fill="#ffffff"/>
<path transform="matrix(1,0,0,-1,503.0566,728.6553)" d="M 0 0 C 0 4.881 -3.525 6.779 -8.226 6.779 L -25.672 6.779 L -25.672 -6.78 L -8.226 -6.78 C -3.525 -6.78 0 -4.882 0 0 M 25.491 .723 C 25.491 -15.187 12.927 -22.689 -6.146 -22.689 L -25.672 -22.689 L -25.672 -39.141 L -50.981 -39.141 L -50.981 24.135 L -6.146 24.135 C 12.927 24.135 25.491 16.632 25.491 .723 " fill="#ffffff"/>
<path transform="matrix(1,0,0,-1,602.127,748.99417)" d="M 0 0 L 0 -18.802 L -64.179 -18.802 L -64.179 44.474 L -38.869 44.474 L -38.869 0 Z " fill="#ffffff"/>
<path transform="matrix(1,0,0,-1,0,1080)" d="M 611.347 375.479 L 636.657 375.479 L 636.657 312.204 L 611.347 312.204 Z " fill="#ffffff"/>
<path transform="matrix(1,0,0,-1,718.8232,723.05178)" d="M 0 0 L -23.863 0 L -23.863 -44.744 L -49.174 -44.744 L -49.174 0 L -73.037 0 L -73.037 18.531 L 0 18.531 Z " fill="#ffffff"/>
<path transform="matrix(1,0,0,-1,475.7119,857.4668)" d="M 0 0 L 0 -18.802 L -64.179 -18.802 L -64.179 44.474 L -38.869 44.474 L -38.869 0 Z " fill="#ffffff"/>
<path transform="matrix(1,0,0,-1,0,1080)" d="M 484.932 267.007 L 510.242 267.007 L 510.242 203.732 L 484.932 203.732 Z " fill="#ffffff"/>
<path transform="matrix(1,0,0,-1,597.6514,855.2969)" d="M 0 0 C 0 -14.102 -12.384 -23.141 -36.157 -23.141 C -52.88 -23.141 -67.704 -18.893 -78.19 -11.39 L -66.077 2.53 C -59.026 -2.261 -47.999 -6.057 -35.796 -6.057 C -28.384 -6.057 -24.858 -4.972 -24.858 -2.712 C -24.858 -.543 -27.299 .451 -37.875 1.355 C -57.852 3.073 -75.298 7.683 -75.298 22.508 C -75.298 36.699 -59.84 44.473 -38.869 44.473 C -25.762 44.473 -12.203 41.49 -2.621 35.524 L -14.102 21.513 C -21.423 25.942 -29.649 27.66 -38.778 27.66 C -44.293 27.66 -50.439 27.117 -50.439 24.677 C -50.439 22.598 -46.101 21.965 -36.971 21.242 C -15.367 19.434 0 15.457 0 0 " fill="#ffffff"/>
<path transform="matrix(1,0,0,-1,675.0283,831.5244)" d="M 0 0 L -23.863 0 L -23.863 -44.744 L -49.174 -44.744 L -49.174 0 L -73.037 0 L -73.037 18.531 L 0 18.531 Z " fill="#ffffff"/>
<path transform="matrix(1,0,0,-1,469.6729,190.24121)" d="M 0 0 L 0 -66.148 C 0 -70.808 2.485 -75.113 6.521 -77.442 L 70.327 -114.281 L 134.134 -77.442 C 138.169 -75.113 140.654 -70.808 140.654 -66.148 L 140.654 0 C 140.654 4.659 138.169 8.964 134.134 11.293 L 70.327 48.132 L 6.521 11.293 C 2.485 8.964 0 4.659 0 0 " fill="#ff3900"/>
<path transform="matrix(1,0,0,-1,374.2021,336.83253)" d="M 0 0 L 0 -66.148 C 0 -70.808 2.485 -75.112 6.521 -77.442 L 70.327 -114.281 L 134.134 -77.442 C 138.168 -75.112 140.654 -70.808 140.654 -66.148 L 140.654 0 C 140.654 4.659 138.168 8.964 134.134 11.293 L 70.327 48.132 L 6.521 11.293 C 2.485 8.964 0 4.659 0 0 " fill="#ff3900"/>
<path transform="matrix(1,0,0,-1,565.1436,336.83253)" d="M 0 0 L 0 -66.148 C 0 -70.808 2.486 -75.112 6.521 -77.442 L 70.327 -114.281 L 134.134 -77.442 C 138.169 -75.112 140.654 -70.808 140.654 -66.148 L 140.654 0 C 140.654 4.659 138.169 8.964 134.134 11.293 L 70.327 48.132 L 6.521 11.293 C 2.486 8.964 0 4.659 0 0 " fill="#ff3900"/>
<path transform="matrix(1,0,0,-1,508.0557,323.8081)" d="M 0 0 L -63.526 34.911 L -63.526 -46.197 L -63.526 -127.305 L 3.137 -91.945 C 22.17 -81.849 45.007 -82.018 63.889 -92.394 L 127.415 -127.305 L 127.415 -46.197 L 127.415 34.911 L 60.752 -.45 C 41.719 -10.545 18.882 -10.376 0 0 " fill="#ff3900"/>
<path transform="matrix(1,0,0,-1,560.7021,516.4233)" d="M 0 0 L 0 -66.149 C 0 -70.808 2.485 -75.113 6.521 -77.442 L 70.327 -114.281 L 134.134 -77.442 C 138.168 -75.113 140.654 -70.808 140.654 -66.149 L 140.654 0 C 140.654 4.659 138.168 8.964 134.134 11.293 L 70.327 48.132 L 6.521 11.293 C 2.485 8.964 0 4.659 0 0 " fill="#ff3900"/>
<path transform="matrix(1,0,0,-1,751.6436,516.4233)" d="M 0 0 L 0 -66.149 C 0 -70.808 2.486 -75.113 6.521 -77.442 L 70.327 -114.281 L 134.134 -77.442 C 138.169 -75.113 140.654 -70.808 140.654 -66.149 L 140.654 0 C 140.654 4.659 138.169 8.964 134.134 11.293 L 70.327 48.132 L 6.521 11.293 C 2.486 8.964 0 4.659 0 0 " fill="#ff3900"/>
<path transform="matrix(1,0,0,-1,694.5557,503.3994)" d="M 0 0 L -63.526 34.911 L -63.526 -46.197 L -63.526 -127.305 L 3.137 -91.944 C 22.17 -81.849 45.007 -82.018 63.889 -92.394 L 127.415 -127.305 L 127.415 -46.197 L 127.415 34.911 L 60.752 -.45 C 41.719 -10.545 18.882 -10.376 0 0 " fill="#ff3900"/>
<path transform="matrix(1,0,0,-1,178.7021,516.4233)" d="M 0 0 L 0 -66.149 C 0 -70.808 2.485 -75.113 6.521 -77.442 L 70.327 -114.281 L 134.134 -77.442 C 138.168 -75.113 140.654 -70.808 140.654 -66.149 L 140.654 0 C 140.654 4.659 138.168 8.964 134.134 11.293 L 70.327 48.132 L 6.521 11.293 C 2.485 8.964 0 4.659 0 0 " fill="#ff3900"/>
<path transform="matrix(1,0,0,-1,369.6436,516.4233)" d="M 0 0 L 0 -66.149 C 0 -70.808 2.486 -75.113 6.521 -77.442 L 70.327 -114.281 L 134.134 -77.442 C 138.169 -75.113 140.654 -70.808 140.654 -66.149 L 140.654 0 C 140.654 4.659 138.169 8.964 134.134 11.293 L 70.327 48.132 L 6.521 11.293 C 2.486 8.964 0 4.659 0 0 " fill="#ff3900"/>
<path transform="matrix(1,0,0,-1,312.5557,503.3994)" d="M 0 0 L -63.526 34.911 L -63.526 -46.197 L -63.526 -127.305 L 3.137 -91.944 C 22.17 -81.849 45.007 -82.018 63.889 -92.394 L 127.415 -127.305 L 127.415 -46.197 L 127.415 34.911 L 60.752 -.45 C 41.719 -10.545 18.882 -10.376 0 0 " fill="#ff3900"/>
<path transform="matrix(1,0,0,-1,503.5557,503.3994)" d="M 0 0 L -63.526 34.911 L -63.526 -46.197 L -63.526 -127.305 L 3.137 -91.944 C 22.17 -81.849 45.007 -82.018 63.889 -92.394 L 127.415 -127.305 L 127.415 -46.197 L 127.415 34.911 L 60.752 -.45 C 41.719 -10.545 18.882 -10.376 0 0 " fill="#ff3900"/>
</g>
</g>
</g>
</svg>
